<?xml version="1.0" encoding="utf-8"?>
<!-- Generator: Adobe Illustrator 16.0.3, SVG Export Plug-In . SVG Version: 6.00 Build 0)  -->
<!DOCTYPE svg PUBLIC "-//W3C//DTD SVG 1.1//EN" "http://www.w3.org/Graphics/SVG/1.1/DTD/svg11.dtd">
<svg version="1.1" id="Layer_1" xmlns="http://www.w3.org/2000/svg" xmlns:xlink="http://www.w3.org/1999/xlink" x="0px" y="0px"
	 width="232.488px" height="262.487px" viewBox="0 0 232.488 262.487" enable-background="new 0 0 232.488 262.487"
	 xml:space="preserve">
<path fill="#767676" d="M119.737,72.502c-35.44,0-64.17,28.729-64.17,64.17s28.73,64.17,64.17,64.17
	c35.439,0,64.17-28.729,64.17-64.17S155.176,72.502,119.737,72.502z M119.737,181.842c-24.94,0-45.17-20.22-45.17-45.17
	c0-24.94,20.23-45.17,45.17-45.17c24.939,0,45.17,20.229,45.17,45.17C164.907,161.622,144.676,181.842,119.737,181.842z"/>
<linearGradient id="SVGID_1_" gradientUnits="userSpaceOnUse" x1="73.7583" y1="138.3125" x2="202.103" y2="138.3125" gradientTransform="matrix(0.9722 0.234 -0.234 0.9722 17.6727 -28.8369)">
	<stop  offset="0" style="stop-color:#FEE502"/>
	<stop  offset="0.2097" style="stop-color:#FEE502"/>
	<stop  offset="0.4839" style="stop-color:#D5CC7B"/>
	<stop  offset="0.8226" style="stop-color:#C1C0B8"/>
	<stop  offset="1" style="stop-color:#BFBFBF"/>
</linearGradient>
<path fill="url(#SVGID_1_)" d="M134.417,75.518c-34.456-8.292-69.111,12.919-77.402,47.375
	c-8.292,34.457,12.919,69.111,47.375,77.402c34.457,8.292,69.111-12.918,77.403-47.375
	C190.083,118.463,168.874,83.809,134.417,75.518z M108.835,181.822c-24.248-5.834-39.186-30.227-33.348-54.484
	c5.835-24.248,30.237-39.184,54.484-33.348c24.248,5.835,39.183,30.236,33.348,54.483
	C157.482,172.732,133.083,187.657,108.835,181.822z"/>
<path fill="#BFBFBF" d="M181.792,152.916c-0.33,1.351-0.689,2.681-1.1,3.99h-20.3c1.229-2.65,2.22-5.47,2.93-8.43
	c5.83-24.25-9.1-48.65-33.35-54.49c-3.54-0.85-7.08-1.26-10.57-1.26v-19.01c4.95,0,9.99,0.59,15.01,1.799
	C168.873,83.807,190.083,118.467,181.792,152.916z"/>
<path fill="#FEE502" d="M119.403,73.717v19.01c-11.09-0.01-21.62,4.09-29.73,11.18h-24.71
	C76.593,85.276,97.213,73.696,119.403,73.717z"/>
</svg>
